<svg xmlns="http://www.w3.org/2000/svg" xmlns:xlink="http://www.w3.org/1999/xlink" width="308" height="308.02" viewBox="0 0 308 308.02"><defs><style>.cls-1{fill:none;}.cls-2{clip-path:url(#clip-path);}.cls-3{fill:#cde5ff;fill-rule:evenodd;}</style><clipPath id="clip-path" transform="translate(0 0)"><rect class="cls-1" width="307.99" height="307.99"/></clipPath></defs><title>training-btn</title><g id="Ebene_2" data-name="Ebene 2"><g id="Ebene_1-2" data-name="Ebene 1"><g id="Waffle"><path id="Background" class="cls-1" d="M0,0H308V308H0Z" transform="translate(0 0)"/><g class="cls-2"><g id="Ebene_2-2" data-name="Ebene 2"><g id="Ebene_1-2-2" data-name="Ebene 1-2"><path id="Shape" class="cls-3" d="M167.92,3.64,184.52,13a28.45,28.45,0,0,0,13.57,3.63l19,.24a28.43,28.43,0,0,1,24.1,13.91L251,47.12a28.55,28.55,0,0,0,9.94,9.93l16.37,9.72a28.43,28.43,0,0,1,13.91,24.1l.24,19a28.43,28.43,0,0,0,3.64,13.57l9.31,16.61a28.4,28.4,0,0,1,0,27.84L295,184.53a28.57,28.57,0,0,0-3.63,13.57l-.24,19a28.46,28.46,0,0,1-13.91,24.11L260.89,251A28.39,28.39,0,0,0,251,260.9l-9.72,16.37a28.43,28.43,0,0,1-24.1,13.91l-19,.24a28.46,28.46,0,0,0-13.57,3.64l-16.6,9.31a28.42,28.42,0,0,1-27.85,0l-16.6-9.31a28.46,28.46,0,0,0-13.57-3.64l-19-.24a28.43,28.43,0,0,1-24.1-13.91L57,260.9A28.39,28.39,0,0,0,47.1,251l-16.37-9.72a28.46,28.46,0,0,1-13.91-24.11l-.24-19A28.57,28.57,0,0,0,13,184.53L3.64,167.92a28.47,28.47,0,0,1,0-27.85L13,123.47a28.42,28.42,0,0,0,3.63-13.57l.24-19a28.43,28.43,0,0,1,13.91-24.1L47.12,57a28.55,28.55,0,0,0,9.93-9.94l9.72-16.37a28.43,28.43,0,0,1,24.1-13.91l19-.24a28.43,28.43,0,0,0,13.57-3.64l16.6-9.31a28.45,28.45,0,0,1,27.84,0Z" transform="translate(0 0)"/></g></g></g></g></g></g></svg>