<svg id="Waffle" xmlns="http://www.w3.org/2000/svg" width="308" height="308.02" viewBox="0 0 308 308.02"><defs><style>.cls-1{fill:#cde5ff;fill-rule:evenodd;}</style></defs><title>training-btn</title><path id="Waffle_Shape" class="cls-1" d="M167.92,3.64,184.52,13a28.42,28.42,0,0,0,13.57,3.63l19,.24a28.43,28.43,0,0,1,24.1,13.91L251,47.12a28.47,28.47,0,0,0,9.94,9.93l16.37,9.72a28.43,28.43,0,0,1,13.91,24.1l.24,19a28.43,28.43,0,0,0,3.64,13.57l9.31,16.61a28.4,28.4,0,0,1,0,27.84L295,184.53a28.57,28.57,0,0,0-3.63,13.57l-.24,19a28.46,28.46,0,0,1-13.91,24.11L260.89,251a28.41,28.41,0,0,0-9.89,9.9l-9.72,16.37a28.43,28.43,0,0,1-24.1,13.91l-19,.24a28.43,28.43,0,0,0-13.57,3.64L168,304.37a28.42,28.42,0,0,1-27.85,0l-16.6-9.31A28.43,28.43,0,0,0,110,291.42l-19-.24a28.43,28.43,0,0,1-24.1-13.91L57,260.9a28.44,28.44,0,0,0-9.9-9.9l-16.37-9.72a28.46,28.46,0,0,1-13.91-24.11l-.24-19A28.59,28.59,0,0,0,13,184.53L3.64,167.92a28.47,28.47,0,0,1,0-27.85L13,123.47a28.42,28.42,0,0,0,3.63-13.57l.24-19A28.43,28.43,0,0,1,30.78,66.8L47.12,57a28.47,28.47,0,0,0,9.93-9.94l9.72-16.37a28.43,28.43,0,0,1,24.1-13.91l19-.24a28.43,28.43,0,0,0,13.57-3.64L140,3.59a28.45,28.45,0,0,1,27.84,0Z"/></svg>