<svg id="Add-Label-Icon" xmlns="http://www.w3.org/2000/svg" width="24" height="24" viewBox="0 0 24 24"><title>add-label-icon-v02</title><path d="M19.79,18.8a1,1,0,0,1-.29.7,1,1,0,0,1-1.41,0L16,17.45A7.35,7.35,0,0,1,11.5,19,7.48,7.48,0,0,1,4,12a4.19,4.19,0,0,1,0-.5V6A2,2,0,0,1,6,4L9.89,4V6a1,1,0,0,0,2,0V4A.14.14,0,0,1,12,4a7.26,7.26,0,0,1,2,.42A3.31,3.31,0,0,0,14,5a5,5,0,0,0,4.85,5A7.51,7.51,0,0,1,19,11.5,7.35,7.35,0,0,1,17.45,16l2.05,2.05A1,1,0,0,1,19.79,18.8Z"/><path d="M22,5h0a1,1,0,0,1-1,1H20V7a1,1,0,0,1-1,1h0a1,1,0,0,1-1-1V6H17a1,1,0,0,1-1-1h0a1,1,0,0,1,1-1h1V3a1,1,0,0,1,1-1h0a1,1,0,0,1,1,1V4h1A1,1,0,0,1,22,5Z"/></svg>